PathFileType        4      (X/Y/Z)      C:\Users\pc\Desktop\IMUTRC\Sujet_02\Sujet_02_Tpose.trc         
DataRate	CameraRate	NumFrames	NumMarkers	Units	OrigDataRate	OrigDataStartFrame	OrigNumFrames
60.0	60.0	4	64	mm	60.0	97	155
Frame#	Time	pHipOrigin			pRightASI			pLeftASI			pRightCSI			pLeftCSI			pRightIschialTub			pLeftIschialTub			pSacrum			pL5SpinalProcess			pL3SpinalProcess			pT12SpinalProcess			pIJ			pT4SpinalProcess			pT8SpinalProcess			pPX			pC7SpinalProcess			pTopOfHead			pRightAuricularis			pLeftAuricularis			pBackOfHead			pRightAcromion			pLeftAcromion			pRightArmLatEpicondyle			pRightArmMedEpicondyle			pLeftArmLatEpicondyle			pLeftArmMedEpicondyle			pRightUlnarStyloid			pRightRadialStyloid			pRightOlecranon			pLeftUlnarStyloid			pLeftRadialStyloid			pLeftOlecranon			pRightTopOfHand			pRightPinky			pRightBallHand			pLeftTopOfHand			pLeftPinky			pLeftBallHand			pRightGreaterTrochanter			pRightKneeLatEpicondyle			pRightKneeMedEpicondyle			pRightPatella			pLeftGreaterTrochanter			pLeftKneeLatEpicondyle			pLeftKneeMedEpicondyle			pLeftPatella			pRightTibialTub			pRightLatMalleolus			pRightMedMalleolus			pLeftTibialTub			pLeftLatMalleolus			pLeftMedMalleolus			pRightHeelFoot			pRightFirstMetatarsal			pRightFifthMetatarsal			pRightPivotFoot			pRightHeelCenter			pRightToe			pLeftHeelFoot			pLeftFirstMetatarsal			pLeftFifthMetatarsal			pLeftPivotFoot			pLeftHeelCenter			pLeftToe			
		X1	Y1	Z1	X2	Y2	Z2	X3	Y3	Z3	X4	Y4	Z4	X5	Y5	Z5	X6	Y6	Z6	X7	Y7	Z7	X8	Y8	Z8	X9	Y9	Z9	X10	Y10	Z10	X11	Y11	Z11	X12	Y12	Z12	X13	Y13	Z13	X14	Y14	Z14	X15	Y15	Z15	X16	Y16	Z16	X17	Y17	Z17	X18	Y18	Z18	X19	Y19	Z19	X20	Y20	Z20	X21	Y21	Z21	X22	Y22	Z22	X23	Y23	Z23	X24	Y24	Z24	X25	Y25	Z25	X26	Y26	Z26	X27	Y27	Z27	X28	Y28	Z28	X29	Y29	Z29	X30	Y30	Z30	X31	Y31	Z31	X32	Y32	Z32	X33	Y33	Z33	X34	Y34	Z34	X35	Y35	Z35	X36	Y36	Z36	X37	Y37	Z37	X38	Y38	Z38	X39	Y39	Z39	X40	Y40	Z40	X41	Y41	Z41	X42	Y42	Z42	X43	Y43	Z43	X44	Y44	Z44	X45	Y45	Z45	X46	Y46	Z46	X47	Y47	Z47	X48	Y48	Z48	X49	Y49	Z49	X50	Y50	Z50	X51	Y51	Z51	X52	Y52	Z52	X53	Y53	Z53	X54	Y54	Z54	X55	Y55	Z55	X56	Y56	Z56	X57	Y57	Z57	X58	Y58	Z58	X59	Y59	Z59	X60	Y60	Z60	X61	Y61	Z61	X62	Y62	Z62	X63	Y63	Z63	X64	Y64	Z64	
97	1.6	-4420.94519	1100.4552200000005	-6472.31721	-4333.38803	1190.7773300000003	-6326.69583	-4369.10213	1222.3439900000005	-6611.94783	-4384.07902	1263.3576100000005	-6338.67734	-4413.34154	1289.1639300000004	-6572.54711	-4472.097	1032.7136300000004	-6413.33134	-4486.84347	1045.6167900000005	-6530.15102	-4491.68215	1121.4228500000004	-6461.25736	-4453.66391	1218.8877900000005	-6455.95785	-4439.37827	1333.8641600000005	-6453.19288	-4435.69166	1439.8544100000004	-6452.73206	-4258.96445	1644.9224800000004	-6474.16052	-4416.56733	1638.2404900000004	-6461.02694	-4430.85297	1545.3838200000005	-6455.72743	-4273.25009	1517.5037800000005	-6467.47852	-4404.81624	1693.0789200000004	-6462.63984	-4344.44788	1912.6630500000006	-6495.58898	-4324.17149	1833.4007800000004	-6423.69995	-4358.04228	1817.9630800000004	-6547.43203	-4390.30018	1825.5667200000005	-6472.0868	-4386.61356	1684.3232000000005	-6260.33672	-4413.80237	1674.6458300000004	-6665.6342	-4383.8486	1560.8215300000004	-5991.44409	-4333.38803	1523.0337000000004	-6006.42097	-4360.80724	1527.6419800000006	-6922.0845	-4302.74302	1510.3609600000004	-6899.50397	-4292.144	1484.0938100000005	-5725.31641	-4311.95957	1538.2410000000004	-5715.17822	-4351.82112	1517.5037800000005	-6010.79883	-4268.18099	1441.0064700000005	-7180.37811	-4302.05178	1486.3979500000005	-7195.12458	-4318.64156	1498.8402800000003	-6896.73901	-4294.67855	1511.0522000000003	-5532.92108	-4268.64182	1481.3288500000006	-5614.94831	-4279.01043	1503.9093800000005	-5687.98941	-4259.65569	1449.7621900000004	-7372.77344	-4236.38392	1432.9420000000005	-7286.59877	-4257.81238	1458.7483200000004	-7217.24428	-4407.35079	1056.6766400000004	-6297.66372	-4444.21696	610.8263800000003	-6327.15666	-4446.52109	609.9047200000003	-6413.79216	-4396.75176	609.9047200000003	-6374.62186	-4452.51185	1081.1004800000005	-6646.04904	-4479.93106	633.8677300000005	-6628.3072	-4459.19384	629.2594600000004	-6544.43666	-4421.63643	631.5636000000004	-6595.12764	-4384.30943	570.0431700000004	-6374.16103	-4454.58557	145.3909600000004	-6334.06907	-4455.96805	144.6997200000004	-6402.5019	-4410.11575	591.2412200000005	-6600.19674	-4494.2167	168.8931500000004	-6638.21498	-4477.85734	165.20653000000038	-6571.85587	-4511.26731	32.02749000000039	-6393.51577	-4326.70604	9.446960000000391	-6396.05032	-4346.98243	0.46083000000038643	-6311.02771	-4312.65081	1.6128900000003887	-6349.27636	-4469.79286	24.654250000000392	-6384.29923	-4230.62358	1.1520700000003876	-6330.38245	-4556.65878	65.8982800000004	-6568.39967	-4385.23108	7.373230000000405	-6610.56535	-4426.2447	7.6036500000004095	-6688.44514	-4384.30943	-0.46082999999959223	-6659.41303	-4520.94468	50.9214000000004	-6587.29358	-4309.88585	0.6912400000004101	-6698.58334	
98	1.617	-4420.94519	1100.4552200000005	-6472.31721	-4333.38803	1190.7773300000003	-6326.69583	-4368.87172	1222.3439900000005	-6611.94783	-4384.07902	1263.3576100000005	-6338.90775	-4413.11113	1289.3943400000005	-6572.54711	-4472.097	1032.7136300000004	-6413.56175	-4486.61305	1045.6167900000005	-6530.38143	-4491.68215	1121.4228500000004	-6461.25736	-4453.66391	1218.8877900000005	-6456.18826	-4439.14786	1333.8641600000005	-6453.19288	-4435.46124	1439.8544100000004	-6452.96247	-4258.73403	1644.9224800000004	-6474.16052	-4416.33692	1638.2404900000004	-6461.02694	-4430.62256	1545.6142300000004	-6455.72743	-4273.25009	1517.5037800000005	-6467.47852	-4404.58582	1693.0789200000004	-6462.63984	-4343.98705	1912.6630500000006	-6495.58898	-4323.94107	1833.4007800000004	-6423.46953	-4357.81187	1817.9630800000004	-6547.43203	-4389.83935	1825.5667200000005	-6472.0868	-4386.61356	1684.3232000000005	-6260.33672	-4413.57195	1674.6458300000004	-6665.6342	-4383.61819	1561.0519400000005	-5991.44409	-4333.15762	1523.2641200000005	-6006.19056	-4360.80724	1527.8723900000005	-6922.0845	-4302.51261	1510.5913700000006	-6899.50397	-4292.37441	1484.0938100000005	-5725.086	-4312.18998	1538.2410000000004	-5715.17822	-4351.82112	1517.7341900000004	-6010.79883	-4268.4114	1441.2368900000004	-7180.60853	-4302.05178	1486.8587700000005	-7195.12458	-4318.41115	1498.8402800000003	-6896.96942	-4295.13938	1510.8217900000002	-5532.92108	-4269.10264	1481.0984300000005	-5614.94831	-4279.24084	1503.6789600000004	-5687.759	-4259.8861	1449.9926000000005	-7373.00386	-4236.61433	1432.9420000000005	-7286.59877	-4257.81238	1458.7483200000004	-7217.24428	-4407.5812	1056.6766400000004	-6297.89414	-4444.21696	610.8263800000003	-6327.15666	-4446.29068	609.9047200000003	-6413.79216	-4396.75176	609.9047200000003	-6374.62186	-4452.28143	1081.1004800000005	-6646.04904	-4479.70065	634.0981500000005	-6628.53761	-4459.19384	629.2594600000004	-6544.43666	-4421.63643	631.5636000000004	-6595.35806	-4384.30943	570.0431700000004	-6374.16103	-4454.35515	145.3909600000004	-6334.06907	-4455.96805	144.6997200000004	-6402.5019	-4410.11575	591.2412200000005	-6600.19674	-4494.2167	168.8931500000004	-6638.21498	-4477.85734	165.20653000000038	-6571.85587	-4511.26731	32.02749000000039	-6393.51577	-4326.70604	9.67737000000039	-6396.05032	-4346.98243	0.46083000000038643	-6311.02771	-4312.65081	1.6128900000003887	-6349.27636	-4469.79286	24.654250000000392	-6384.29923	-4230.62358	1.1520700000003876	-6330.38245	-4556.65878	65.8982800000004	-6568.39967	-4385.23108	7.373230000000405	-6610.56535	-4426.2447	7.8340600000004095	-6688.44514	-4384.30943	-0.46082999999959223	-6659.41303	-4520.94468	51.1518100000004	-6587.29358	-4309.88585	0.6912400000004101	-6698.58334	
99	1.633	-4420.94519	1100.4552200000005	-6472.54762	-4333.38803	1190.7773300000003	-6326.92625	-4368.87172	1222.5744100000004	-6611.94783	-4383.8486	1263.3576100000005	-6338.90775	-4413.11113	1289.3943400000005	-6572.54711	-4472.097	1032.7136300000004	-6413.56175	-4486.61305	1045.8472000000004	-6530.38143	-4491.68215	1121.4228500000004	-6461.25736	-4453.66391	1218.8877900000005	-6456.18826	-4439.14786	1334.0945800000004	-6453.19288	-4435.46124	1439.8544100000004	-6452.96247	-4258.50362	1644.9224800000004	-6474.16052	-4416.1065	1638.2404900000004	-6461.02694	-4430.62256	1545.6142300000004	-6455.72743	-4273.01967	1517.5037800000005	-6467.47852	-4404.35541	1693.0789200000004	-6462.63984	-4343.75664	1912.6630500000006	-6495.58898	-4323.71066	1833.4007800000004	-6423.46953	-4357.58145	1817.9630800000004	-6547.43203	-4389.60894	1825.5667200000005	-6472.0868	-4386.38315	1684.5536200000004	-6260.33672	-4413.34154	1674.8762500000005	-6665.6342	-4383.61819	1561.2823600000004	-5991.44409	-4333.15762	1523.4945300000004	-6006.19056	-4360.57683	1528.1028000000003	-6922.0845	-4302.2822	1510.8217900000004	-6899.73438	-4292.60483	1483.8634000000004	-5725.086	-4312.18998	1538.2410000000004	-5715.17822	-4352.05153	1517.7341900000004	-6010.79883	-4268.4114	1441.4673000000005	-7180.60853	-4301.82137	1487.0891900000004	-7195.355	-4318.41115	1499.0706900000005	-6896.96942	-4295.36979	1510.8217900000002	-5532.92108	-4269.56347	1480.8680200000003	-5614.7179	-4279.47125	1503.4485500000005	-5687.759	-4259.8861	1450.2230200000004	-7373.00386	-4236.61433	1432.9420000000005	-7286.82918	-4257.81238	1458.9787300000005	-7217.4747	-4407.5812	1056.9070500000005	-6297.89414	-4444.21696	610.8263800000003	-6327.15666	-4446.29068	609.9047200000003	-6413.79216	-4396.75176	609.9047200000003	-6374.62186	-4452.28143	1081.3308900000004	-6646.04904	-4479.70065	634.0981500000005	-6628.53761	-4458.96343	629.4898800000004	-6544.43666	-4421.63643	631.5636000000004	-6595.35806	-4384.30943	570.0431700000004	-6374.16103	-4454.35515	145.3909600000004	-6334.06907	-4455.73764	144.6997200000004	-6402.27148	-4410.11575	591.2412200000005	-6600.42715	-4494.2167	168.8931500000004	-6638.21498	-4477.85734	165.20653000000038	-6571.85587	-4511.26731	32.02749000000039	-6393.51577	-4326.70604	9.67737000000039	-6396.05032	-4346.98243	0.46083000000038643	-6311.02771	-4312.65081	1.6128900000003887	-6349.27636	-4469.79286	24.654250000000392	-6384.29923	-4230.62358	1.1520700000003876	-6330.38245	-4556.65878	65.8982800000004	-6568.39967	-4385.23108	7.373230000000405	-6610.56535	-4426.2447	7.8340600000004095	-6688.44514	-4384.30943	-0.46082999999959223	-6659.41303	-4520.71426	51.1518100000004	-6587.29358	-4309.88585	0.6912400000004101	-6698.58334	
100	1.65	-4420.94519	1100.4552200000005	-6472.54762	-4333.38803	1190.7773300000003	-6326.92625	-4368.64131	1222.5744100000004	-6611.94783	-4383.8486	1263.3576100000005	-6338.90775	-4412.88071	1289.3943400000005	-6572.54711	-4472.097	1032.9440400000005	-6413.56175	-4486.61305	1045.8472000000004	-6530.61184	-4491.45174	1121.4228500000004	-6461.48777	-4453.4335	1219.1182000000003	-6456.18826	-4438.91745	1334.0945800000004	-6453.4233	-4435.46124	1439.8544100000004	-6452.96247	-4258.50362	1644.9224800000004	-6474.16052	-4416.1065	1638.2404900000004	-6461.02694	-4430.39214	1545.6142300000004	-6455.72743	-4272.78926	1517.5037800000005	-6467.24811	-4404.125	1693.0789200000004	-6462.63984	-4343.52623	1912.6630500000006	-6495.35857	-4323.48025	1833.4007800000004	-6423.46953	-4357.35104	1817.9630800000004	-6547.43203	-4389.37853	1825.7971400000004	-6472.0868	-4386.15274	1684.5536200000004	-6260.33672	-4413.11113	1674.8762500000005	-6665.6342	-4383.61819	1561.2823600000004	-5991.21367	-4333.15762	1523.4945300000004	-6006.19056	-4360.34642	1528.3332200000004	-6922.31491	-4302.05178	1511.0522000000005	-6899.73438	-4292.83524	1483.8634000000004	-5725.086	-4312.18998	1538.2410000000004	-5715.17822	-4352.05153	1517.9646100000004	-6010.79883	-4268.4114	1441.4673000000005	-7180.83894	-4301.82137	1487.5500100000004	-7195.355	-4318.41115	1499.0706900000005	-6896.96942	-4295.6002	1510.8217900000002	-5532.92108	-4269.79388	1480.6376100000004	-5614.7179	-4279.70167	1503.4485500000005	-5687.759	-4259.8861	1450.4534300000005	-7373.23427	-4236.84474	1432.9420000000005	-7286.82918	-4257.81238	1459.2091500000004	-7217.4747	-4407.5812	1056.9070500000005	-6297.89414	-4443.98654	610.8263800000003	-6327.15666	-4446.29068	610.1351400000003	-6413.79216	-4396.75176	609.9047200000003	-6374.62186	-4452.05102	1081.3308900000004	-6646.27946	-4479.70065	634.0981500000005	-6628.53761	-4458.96343	629.4898800000004	-6544.66707	-4421.40601	631.5636000000004	-6595.35806	-4384.30943	570.0431700000004	-6374.16103	-4454.35515	145.62138000000039	-6334.06907	-4455.73764	144.6997200000004	-6402.27148	-4409.88534	591.2412200000005	-6600.42715	-4494.2167	168.8931500000004	-6638.21498	-4477.85734	165.20653000000038	-6571.85587	-4511.26731	32.02749000000039	-6393.51577	-4326.70604	9.67737000000039	-6396.05032	-4346.98243	0.46083000000038643	-6311.02771	-4312.65081	1.6128900000003887	-6349.27636	-4469.79286	24.654250000000392	-6384.29923	-4230.62358	1.1520700000003876	-6330.38245	-4556.65878	66.1286900000004	-6568.39967	-4385.23108	7.373230000000405	-6610.56535	-4426.2447	7.8340600000004095	-6688.44514	-4384.30943	-0.46082999999959223	-6659.41303	-4520.71426	51.1518100000004	-6587.29358	-4309.88585	0.6912400000004101	-6698.58334	
